<?xml version="1.0" ?><!DOCTYPE svg  PUBLIC '-//W3C//DTD SVG 1.1//EN'  'http://www.w3.org/Graphics/SVG/1.1/DTD/svg11.dtd'><svg enable-background="new 0 0 64 64" height="64px" id="Layer_1" version="1.1" viewBox="0 0 64 64" width="64px" xml:space="preserve" xmlns="http://www.w3.org/2000/svg" xmlns:xlink="http://www.w3.org/1999/xlink"><g><path d="   M34.149,16.462c-2.582-2.711-6.32-4.416-10.48-4.416c-7.79,0-14.102,5.976-14.102,13.346c0,0.714,0.059,1.418,0.173,2.1l0,0   C4.843,28.069,1.04,32.343,1.04,37.527c0,5.577,4.403,10.101,9.837,10.101h0.796" fill="none" stroke="#231F20" stroke-linecap="round" stroke-linejoin="round" stroke-miterlimit="10" stroke-width="2"/><path d="   M46.584,28.506c-0.648-6.802-6.688-12.131-14.045-12.131c-7.79,0-14.104,5.973-14.104,13.343c0,0.717,0.061,1.418,0.174,2.102l0,0   c-4.896,0.576-8.7,4.85-8.7,10.034c0,5.577,4.403,10.101,9.837,10.101h36.06c3.955,0,7.155-2.859,7.155-6.389   c0-3.191-2.617-5.838-6.04-6.312l0,0C56.921,33.673,52.017,28.506,46.584,28.506C46.408,28.506,46.755,28.496,46.584,28.506   c-2.878,0.154-5.426,1.579-7.13,3.735" fill="none" stroke="#231F20" stroke-linecap="round" stroke-linejoin="round" stroke-miterlimit="10" stroke-width="2"/></g></svg>